# xmcd CD database file
#
# Track frame offsets:
#	150
#	10044
#	17361
#	28248
#	37772
#	46614
#	60623
#	77980
#	90509
#	101164
#	115626
#	129665
#	145626
#	156184
#	168903
#	179788
#	191870
#	203392
#	214673
#	224660
#	233476
#
# Disc length: 3272 seconds
#
# Revision: 2
# Processed by: cddbd v1.5.2PL0 Copyright (c) Steve Scherf et al.
# Submitted via: CDex 1.70beta2
#
DISCID=110cc615
DTITLE=Scarabeus - Scarabeus
DYEAR=2007
DGENRE=Country
TTITLE0=Tennessee
TTITLE1=Franta muzikant
TTITLE2=Modré údolí
TTITLE3=Strejda
TTITLE4=Prší, prší
TTITLE5=Ohrada
TTITLE6=To ta holka
TTITLE7=Odlet
TTITLE8=Nekonečno
TTITLE9=Návrat
TTITLE10=Zlato severu
TTITLE11=Irská balada
TTITLE12=Havran
TTITLE13=Žízeň
TTITLE14=Cesta k New Orleans
TTITLE15=Dívka z venkova
TTITLE16=Marcelo
TTITLE17=Malá Loo
TTITLE18=Nebeskej Express
TTITLE19=Ztracený vzpomínky
TTITLE20=Sbohem údolí
EXTD=YEAR: 2007
EXTT0=
EXTT1=
EXTT2=
EXTT3=
EXTT4=
EXTT5=
EXTT6=
EXTT7=
EXTT8=
EXTT9=
EXTT10=
EXTT11=
EXTT12=
EXTT13=
EXTT14=
EXTT15=
EXTT16=
EXTT17=
EXTT18=
EXTT19=
EXTT20=
PLAYORDER=
